<svg width="1026" height="1013" viewBox="0 0 1026 1013" fill="none" xmlns="http://www.w3.org/2000/svg">
<g clip-path="url(#clip0_82_11)">
<path d="M87.76 587L140.96 321H259.14C294.86 321 322.347 328.727 341.6 344.18C361.107 359.633 370.86 381.293 370.86 409.16C370.86 431.453 365.287 451.087 354.14 468.06C343.247 485.033 327.667 498.207 307.4 507.58C287.387 516.953 263.7 521.64 236.34 521.64H150.46L198.34 482.5L177.44 587H87.76ZM196.06 493.14L164.52 452.48H240.9C253.313 452.48 262.94 449.44 269.78 443.36C276.62 437.027 280.04 428.287 280.04 417.14C280.04 407.513 277 400.673 270.92 396.62C265.093 392.313 256.987 390.16 246.6 390.16H177.06L224.94 348.36L196.06 493.14ZM328.012 587L497.492 321H585.652L648.732 587H559.432L516.492 362.42H551.452L422.632 587H328.012ZM406.292 540.64L442.012 476.04H564.372L574.252 540.64H406.292ZM735.23 587L675.95 321H767.91L815.79 546.34H757.27L897.11 321H989.07L823.39 587H735.23Z" fill="white"/>
<path d="M87.9972 708V614.909H124.724C131.785 614.909 137.8 616.258 142.77 618.955C147.74 621.621 151.527 625.333 154.134 630.091C156.77 634.818 158.088 640.273 158.088 646.455C158.088 652.636 156.755 658.091 154.088 662.818C151.421 667.545 147.558 671.227 142.497 673.864C137.467 676.5 131.376 677.818 124.224 677.818H100.815V662.045H121.043C124.83 662.045 127.952 661.394 130.406 660.091C132.891 658.758 134.74 656.924 135.952 654.591C137.194 652.227 137.815 649.515 137.815 646.455C137.815 643.364 137.194 640.667 135.952 638.364C134.74 636.03 132.891 634.227 130.406 632.955C127.921 631.652 124.77 631 120.952 631H107.679V708H87.9972ZM164.472 708V614.909H201.199C208.23 614.909 214.23 616.167 219.199 618.682C224.199 621.167 228.002 624.697 230.609 629.273C233.245 633.818 234.563 639.167 234.563 645.318C234.563 651.5 233.23 656.818 230.563 661.273C227.896 665.697 224.033 669.091 218.972 671.455C213.942 673.818 207.851 675 200.699 675H176.109V659.182H197.518C201.275 659.182 204.396 658.667 206.881 657.636C209.366 656.606 211.215 655.061 212.427 653C213.669 650.939 214.29 648.379 214.29 645.318C214.29 642.227 213.669 639.621 212.427 637.5C211.215 635.379 209.351 633.773 206.836 632.682C204.351 631.561 201.215 631 197.427 631H184.154V708H164.472ZM214.745 665.636L237.881 708H216.154L193.518 665.636H214.745ZM327.618 661.455C327.618 671.606 325.693 680.242 321.845 687.364C318.027 694.485 312.815 699.924 306.209 703.682C299.633 707.409 292.239 709.273 284.027 709.273C275.754 709.273 268.33 707.394 261.754 703.636C255.178 699.879 249.981 694.439 246.163 687.318C242.345 680.197 240.436 671.576 240.436 661.455C240.436 651.303 242.345 642.667 246.163 635.545C249.981 628.424 255.178 623 261.754 619.273C268.33 615.515 275.754 613.636 284.027 613.636C292.239 613.636 299.633 615.515 306.209 619.273C312.815 623 318.027 628.424 321.845 635.545C325.693 642.667 327.618 651.303 327.618 661.455ZM307.663 661.455C307.663 654.879 306.678 649.333 304.709 644.818C302.769 640.303 300.027 636.879 296.481 634.545C292.936 632.212 288.784 631.045 284.027 631.045C279.269 631.045 275.118 632.212 271.572 634.545C268.027 636.879 265.269 640.303 263.299 644.818C261.36 649.333 260.39 654.879 260.39 661.455C260.39 668.03 261.36 673.576 263.299 678.091C265.269 682.606 268.027 686.03 271.572 688.364C275.118 690.697 279.269 691.864 284.027 691.864C288.784 691.864 292.936 690.697 296.481 688.364C300.027 686.03 302.769 682.606 304.709 678.091C306.678 673.576 307.663 668.03 307.663 661.455ZM368.797 708H335.797V614.909H369.07C378.434 614.909 386.494 616.773 393.252 620.5C400.009 624.197 405.206 629.515 408.843 636.455C412.509 643.394 414.343 651.697 414.343 661.364C414.343 671.061 412.509 679.394 408.843 686.364C405.206 693.333 399.979 698.682 393.161 702.409C386.373 706.136 378.252 708 368.797 708ZM355.479 691.136H367.979C373.797 691.136 378.691 690.106 382.661 688.045C386.661 685.955 389.661 682.727 391.661 678.364C393.691 673.97 394.706 668.303 394.706 661.364C394.706 654.485 393.691 648.864 391.661 644.5C389.661 640.136 386.676 636.924 382.706 634.864C378.737 632.803 373.843 631.773 368.024 631.773H355.479V691.136ZM480.022 614.909H499.704V675.364C499.704 682.152 498.083 688.091 494.84 693.182C491.628 698.273 487.128 702.242 481.34 705.091C475.552 707.909 468.81 709.318 461.113 709.318C453.386 709.318 446.628 707.909 440.84 705.091C435.052 702.242 430.552 698.273 427.34 693.182C424.128 688.091 422.522 682.152 422.522 675.364V614.909H442.204V673.682C442.204 677.227 442.977 680.379 444.522 683.136C446.098 685.894 448.31 688.061 451.159 689.636C454.007 691.212 457.325 692 461.113 692C464.931 692 468.249 691.212 471.068 689.636C473.916 688.061 476.113 685.894 477.659 683.136C479.234 680.379 480.022 677.227 480.022 673.682V614.909ZM591.634 647.5H571.724C571.361 644.924 570.618 642.636 569.497 640.636C568.376 638.606 566.937 636.879 565.179 635.455C563.421 634.03 561.391 632.939 559.088 632.182C556.815 631.424 554.346 631.045 551.679 631.045C546.861 631.045 542.664 632.242 539.088 634.636C535.512 637 532.74 640.455 530.77 645C528.8 649.515 527.815 655 527.815 661.455C527.815 668.091 528.8 673.667 530.77 678.182C532.77 682.697 535.558 686.106 539.134 688.409C542.709 690.712 546.846 691.864 551.543 691.864C554.179 691.864 556.618 691.515 558.861 690.818C561.134 690.121 563.149 689.106 564.906 687.773C566.664 686.409 568.118 684.758 569.27 682.818C570.452 680.879 571.27 678.667 571.724 676.182L591.634 676.273C591.118 680.545 589.83 684.667 587.77 688.636C585.74 692.576 582.997 696.106 579.543 699.227C576.118 702.318 572.027 704.773 567.27 706.591C562.543 708.379 557.194 709.273 551.224 709.273C542.921 709.273 535.497 707.394 528.952 703.636C522.437 699.879 517.285 694.439 513.497 687.318C509.74 680.197 507.861 671.576 507.861 661.455C507.861 651.303 509.77 642.667 513.588 635.545C517.406 628.424 522.588 623 529.134 619.273C535.679 615.515 543.043 613.636 551.224 613.636C556.618 613.636 561.618 614.394 566.224 615.909C570.861 617.424 574.967 619.636 578.543 622.545C582.118 625.424 585.027 628.955 587.27 633.136C589.543 637.318 590.997 642.106 591.634 647.5ZM595.802 631.136V614.909H672.256V631.136H643.756V708H624.302V631.136H595.802ZM698.129 614.909V708H678.447V614.909H698.129ZM793.468 661.455C793.468 671.606 791.543 680.242 787.695 687.364C783.877 694.485 778.665 699.924 772.059 703.682C765.483 707.409 758.089 709.273 749.877 709.273C741.604 709.273 734.18 707.394 727.604 703.636C721.028 699.879 715.831 694.439 712.013 687.318C708.195 680.197 706.286 671.576 706.286 661.455C706.286 651.303 708.195 642.667 712.013 635.545C715.831 628.424 721.028 623 727.604 619.273C734.18 615.515 741.604 613.636 749.877 613.636C758.089 613.636 765.483 615.515 772.059 619.273C778.665 623 783.877 628.424 787.695 635.545C791.543 642.667 793.468 651.303 793.468 661.455ZM773.513 661.455C773.513 654.879 772.528 649.333 770.559 644.818C768.619 640.303 765.877 636.879 762.331 634.545C758.786 632.212 754.634 631.045 749.877 631.045C745.119 631.045 740.968 632.212 737.422 634.545C733.877 636.879 731.119 640.303 729.149 644.818C727.21 649.333 726.24 654.879 726.24 661.455C726.24 668.03 727.21 673.576 729.149 678.091C731.119 682.606 733.877 686.03 737.422 688.364C740.968 690.697 745.119 691.864 749.877 691.864C754.634 691.864 758.786 690.697 762.331 688.364C765.877 686.03 768.619 682.606 770.559 678.091C772.528 673.576 773.513 668.03 773.513 661.455ZM879.511 614.909V708H862.511L822.011 649.409H821.329V708H801.647V614.909H818.92L859.102 673.455H859.92V614.909H879.511Z" fill="white"/>
</g>
<defs>
<clipPath id="clip0_82_11">
<rect width="1026" height="1013" fill="white"/>
</clipPath>
</defs>
</svg>
